<?xml version="1.0" encoding="UTF-8"?>
<svg id="Layer_2" data-name="Layer 2" xmlns="http://www.w3.org/2000/svg" viewBox="0 0 527.16 156.06">
  <defs>
    <style>
      .cls-1 {
        fill: #fff;
      }
    </style>
  </defs>
  <g id="Layer_1-2" data-name="Layer 1">
    <g>
      <path class="cls-1" d="M246.01,21.73c-1.86,0-3.7.47-5.32,1.36-3.16-10.1-13.92-15.73-24.02-12.57-.5.16-.97.33-1.47.53-5.91-10.46-19.19-14.15-29.65-8.22-4.76,2.69-8.32,7.09-9.99,12.29-7.57-2.8-15.98,1.08-18.78,8.64-.6,1.63-.92,3.37-.91,5.11,0,.71.07,1.43.18,2.13l100.92-.04c-.92-5.34-5.55-9.23-10.96-9.24"/>
      <path class="cls-1" d="M453.41,129.17c-1.73,0-3.45.45-4.97,1.31-2.95-9.71-13-15.12-22.43-12.08-.46.15-.91.32-1.37.51-5.52-10.05-17.92-13.6-27.69-7.9-4.45,2.59-7.77,6.81-9.33,11.81-7.07-2.69-14.93,1.03-17.54,8.31-.56,1.57-.86,3.24-.85,4.91,0,.69.06,1.37.16,2.05l94.24-.04c-.86-5.14-5.18-8.87-10.24-8.88"/>
      <path class="cls-1" d="M52.2,60.22c-1.07,0-2.14.27-3.08.79-1.83-5.85-8.06-9.11-13.91-7.28-.29.09-.56.19-.85.31-3.43-6.06-11.11-8.19-17.17-4.76-2.76,1.56-4.82,4.1-5.79,7.12-4.38-1.62-9.26.62-10.88,5.01C.18,62.34,0,63.35,0,64.36c0,.41.04.83.1,1.24l58.45-.02c-.53-3.09-3.21-5.34-6.35-5.35"/>
      <path class="cls-1" d="M126.48,34.62c-1.07,0-2.14.27-3.08.79-1.83-5.85-8.06-9.11-13.91-7.28-.29.09-.56.19-.85.31-3.43-6.06-11.11-8.19-17.17-4.76-2.76,1.56-4.82,4.1-5.79,7.12-4.38-1.62-9.26.62-10.88,5.01-.35.94-.53,1.95-.53,2.96,0,.41.04.83.1,1.24l58.45-.02c-.53-3.09-3.21-5.34-6.35-5.35"/>
      <path class="cls-1" d="M365.6,34.62c-1.07,0-2.14.27-3.08.79-1.83-5.85-8.06-9.11-13.91-7.28-.29.09-.56.19-.85.31-3.43-6.06-11.11-8.19-17.17-4.76-2.76,1.56-4.82,4.1-5.79,7.12-4.38-1.62-9.26.62-10.88,5.01-.35.94-.53,1.95-.53,2.96,0,.41.04.83.1,1.24l58.45-.02c-.53-3.09-3.21-5.34-6.35-5.35"/>
      <path class="cls-1" d="M392.17,84.84c-1.07,0-2.14.27-3.08.79-1.83-5.85-8.06-9.11-13.91-7.28-.29.09-.56.19-.85.31-3.43-6.06-11.11-8.19-17.17-4.76-2.76,1.56-4.82,4.1-5.79,7.12-4.38-1.62-9.26.62-10.88,5.01-.35.94-.53,1.95-.53,2.96,0,.41.04.83.1,1.24l58.45-.02c-.53-3.09-3.21-5.34-6.35-5.35"/>
      <path class="cls-1" d="M155.75,150.68c-1.07,0-2.14.27-3.08.79-1.83-5.85-8.06-9.11-13.91-7.28-.29.09-.56.19-.85.31-3.43-6.06-11.11-8.19-17.17-4.76-2.76,1.56-4.82,4.1-5.79,7.12-4.38-1.62-9.26.62-10.88,5.01-.35.94-.53,1.95-.53,2.96,0,.41.04.83.1,1.24l58.45-.02c-.53-3.09-3.21-5.34-6.35-5.35"/>
      <path class="cls-1" d="M271.05,132.72c-1.07,0-2.14.27-3.08.79-1.83-5.85-8.06-9.11-13.91-7.28-.29.09-.56.19-.85.31-3.43-6.06-11.11-8.19-17.17-4.76-2.76,1.56-4.82,4.1-5.79,7.12-4.38-1.62-9.26.62-10.88,5.01-.35.94-.53,1.95-.53,2.96,0,.41.04.83.1,1.24l58.45-.02c-.53-3.09-3.21-5.34-6.35-5.35"/>
      <path class="cls-1" d="M302.34,78.54c-1.87,0-3.73.47-5.37,1.37-3.19-10.19-14.05-15.87-24.24-12.68-.5.16-.98.34-1.48.53-5.97-10.55-19.36-14.28-29.92-8.29-4.81,2.72-8.4,7.15-10.08,12.4-7.63-2.82-16.13,1.09-18.95,8.72-.61,1.64-.93,3.4-.92,5.16,0,.72.07,1.44.18,2.15l101.83-.04c-.93-5.39-5.6-9.31-11.06-9.33"/>
      <path class="cls-1" d="M428.45,54.66c2.03,0,4.05.53,5.82,1.54,3.46-11.41,15.25-17.76,26.31-14.19.54.18,1.07.38,1.61.6,6.48-11.81,21.02-15.97,32.47-9.28,5.22,3.04,9.11,8,10.94,13.88,8.29-3.16,17.5,1.22,20.57,9.76.66,1.84,1.01,3.81,1,5.77-.01.81-.08,1.61-.19,2.41l-110.53-.05c1.01-6.03,6.07-10.42,12-10.44"/>
      <path class="cls-1" d="M70.97,100c2.1,0,4.19.54,6.02,1.59,3.58-11.8,15.77-18.37,27.21-14.68.56.19,1.1.39,1.66.62,6.7-12.21,21.74-16.52,33.58-9.59,5.4,3.14,9.42,8.27,11.32,14.35,8.57-3.27,18.1,1.26,21.27,10.09.68,1.9,1.04,3.94,1.03,5.97-.01.83-.08,1.67-.2,2.49l-114.3-.05c1.04-6.24,6.28-10.78,12.41-10.79"/>
    </g>
  </g>
</svg>